<svg width="151" height="47" viewBox="0 0 151 47" fill="none" xmlns="http://www.w3.org/2000/svg">
<circle cx="4" cy="24" r="4" fill="#C0622E"/>
<circle cx="147" cy="24" r="4" fill="#C0622E"/>
<path d="M132 23.5L143 0H8L19 23.5L8 47H143L132 23.5Z" fill="#C0622E"/>
<path d="M45.0927 30.18C44.6487 30.18 44.1867 30.138 43.7067 30.054C43.2267 29.982 42.8487 29.904 42.5727 29.82V29.01H45.0927C45.9927 29.01 46.6347 28.818 47.0187 28.434C47.4147 28.05 47.6127 27.432 47.6127 26.58C47.6127 25.68 47.4147 25.038 47.0187 24.654C46.6347 24.258 45.9927 24.06 45.0927 24.06H43.8327V22.8H44.9127C45.7287 22.8 46.3227 22.62 46.6947 22.26C47.0667 21.888 47.2527 21.318 47.2527 20.55C47.2527 19.83 47.0667 19.29 46.6947 18.93C46.3227 18.57 45.7287 18.39 44.9127 18.39H42.7527V17.58C43.0287 17.484 43.3947 17.4 43.8507 17.328C44.3187 17.256 44.7327 17.22 45.0927 17.22C46.4487 17.22 47.4147 17.496 47.9907 18.048C48.5787 18.588 48.8727 19.422 48.8727 20.55C48.8727 21.27 48.7347 21.846 48.4587 22.278C48.1947 22.71 47.7927 23.052 47.2527 23.304V23.376C47.9727 23.58 48.4827 23.976 48.7827 24.564C49.0827 25.14 49.2327 25.812 49.2327 26.58C49.2327 27.84 48.9267 28.758 48.3147 29.334C47.7027 29.898 46.6287 30.18 45.0927 30.18ZM50.3092 30L53.3692 17.4H55.7092L58.7692 30H57.1492L56.3392 26.76H52.7392L51.9292 30H50.3092ZM53.0092 25.5H56.0692L54.5752 19.2H54.5032L53.0092 25.5ZM66.865 30.18C66.325 30.18 65.875 30 65.515 29.64C65.167 29.28 64.927 28.74 64.795 28.02L64.345 25.68C64.225 25.044 64.009 24.618 63.697 24.402C63.397 24.174 63.043 24.06 62.635 24.06H62.005V30H60.385V17.4H62.005V22.8H62.635C62.947 22.8 63.241 22.686 63.517 22.458C63.793 22.23 64.009 21.804 64.165 21.18L64.615 19.38C64.795 18.66 65.059 18.12 65.407 17.76C65.767 17.4 66.193 17.22 66.685 17.22C66.997 17.22 67.255 17.25 67.459 17.31C67.663 17.37 67.765 17.4 67.765 17.4V18.21C67.321 18.21 66.991 18.318 66.775 18.534C66.571 18.738 66.421 19.02 66.325 19.38L65.875 21.18C65.683 21.924 65.467 22.452 65.227 22.764C64.987 23.064 64.663 23.274 64.255 23.394V23.466C64.711 23.586 65.089 23.796 65.389 24.096C65.689 24.396 65.911 24.924 66.055 25.68L66.505 28.02C66.565 28.332 66.709 28.608 66.937 28.848C67.165 29.076 67.501 29.19 67.945 29.19V30C67.945 30 67.843 30.03 67.639 30.09C67.435 30.15 67.177 30.18 66.865 30.18ZM68.3971 30L71.4571 17.4H73.7971L76.8571 30H75.2371L74.4271 26.76H70.8271L70.0171 30H68.3971ZM71.0971 25.5H74.1571L72.6631 19.2H72.5911L71.0971 25.5ZM80.0029 30.18C79.5589 30.18 79.0969 30.138 78.6169 30.054C78.1369 29.982 77.7589 29.904 77.4829 29.82V29.01H80.0029C80.9029 29.01 81.5449 28.818 81.9289 28.434C82.3249 28.05 82.5229 27.432 82.5229 26.58C82.5229 25.68 82.3249 25.038 81.9289 24.654C81.5449 24.258 80.9029 24.06 80.0029 24.06H78.7429V22.8H79.8229C80.6389 22.8 81.2329 22.62 81.6049 22.26C81.9769 21.888 82.1629 21.318 82.1629 20.55C82.1629 19.83 81.9769 19.29 81.6049 18.93C81.2329 18.57 80.6389 18.39 79.8229 18.39H77.6629V17.58C77.9389 17.484 78.3049 17.4 78.7609 17.328C79.2289 17.256 79.6429 17.22 80.0029 17.22C81.3589 17.22 82.3249 17.496 82.9009 18.048C83.4889 18.588 83.7829 19.422 83.7829 20.55C83.7829 21.27 83.6449 21.846 83.3689 22.278C83.1049 22.71 82.7029 23.052 82.1629 23.304V23.376C82.8829 23.58 83.3929 23.976 83.6929 24.564C83.9929 25.14 84.1429 25.812 84.1429 26.58C84.1429 27.84 83.8369 28.758 83.2249 29.334C82.6129 29.898 81.5389 30.18 80.0029 30.18ZM85.2194 30L88.2794 17.4H90.6194L93.6794 30H92.0594L91.2494 26.76H87.6494L86.8394 30H85.2194ZM87.9194 25.5H90.9794L89.4854 19.2H89.4134L87.9194 25.5ZM96.1987 30V18.66H93.3187V17.4H100.699V18.66H97.8187V30H96.1987ZM105.013 30.18C104.473 30.18 103.969 30.15 103.501 30.09C103.045 30.042 102.589 29.952 102.133 29.82V17.4H103.753V22.53C103.981 22.482 104.269 22.44 104.617 22.404C104.977 22.368 105.289 22.35 105.553 22.35C106.729 22.35 107.593 22.65 108.145 23.25C108.697 23.85 108.973 24.87 108.973 26.31C108.973 27.702 108.673 28.698 108.073 29.298C107.473 29.886 106.453 30.18 105.013 30.18ZM103.753 29.01H105.013C105.829 29.01 106.423 28.806 106.795 28.398C107.167 27.99 107.353 27.294 107.353 26.31C107.353 25.314 107.167 24.618 106.795 24.222C106.423 23.814 105.829 23.61 105.013 23.61H103.753V29.01Z" fill="white"/>
</svg>
