<svg width="546" height="47" viewBox="0 0 546 47" fill="none" xmlns="http://www.w3.org/2000/svg">
<circle cx="4" cy="24" r="4" fill="#2D431D"/>
<circle cx="542" cy="24" r="4" fill="#2D431D"/>
<path d="M132 23.5L143 0H8L19 23.5L8 47H143L132 23.5Z" fill="#2D431D"/>
<path d="M527 23.5L538 0H403L414 23.5L403 47H538L527 23.5Z" fill="#2D431D"/>
<path d="M438.548 23.5L470 0H84L115.452 23.5L84 47H470L438.548 23.5Z" fill="#2D431D"/>
<path d="M184.716 30V17.4H191.736V30H190.116V18.66H186.336V30H184.716ZM197.771 30.18C196.967 30.18 196.271 29.994 195.683 29.622C195.107 29.238 194.663 28.578 194.351 27.642C194.051 26.694 193.901 25.38 193.901 23.7C193.901 22.02 194.051 20.712 194.351 19.776C194.663 18.828 195.107 18.168 195.683 17.796C196.271 17.412 196.967 17.22 197.771 17.22C198.587 17.22 199.283 17.412 199.859 17.796C200.435 18.168 200.873 18.828 201.173 19.776C201.485 20.712 201.641 22.02 201.641 23.7C201.641 25.38 201.485 26.694 201.173 27.642C200.873 28.578 200.435 29.238 199.859 29.622C199.283 29.994 198.587 30.18 197.771 30.18ZM197.771 29.1C198.059 29.1 198.335 29.022 198.599 28.866C198.875 28.698 199.121 28.416 199.337 28.02C199.553 27.624 199.721 27.078 199.841 26.382C199.961 25.674 200.021 24.78 200.021 23.7C200.021 22.62 199.961 21.732 199.841 21.036C199.721 20.328 199.553 19.776 199.337 19.38C199.121 18.984 198.875 18.708 198.599 18.552C198.335 18.384 198.059 18.3 197.771 18.3C197.483 18.3 197.201 18.384 196.925 18.552C196.661 18.708 196.421 18.984 196.205 19.38C195.989 19.776 195.821 20.328 195.701 21.036C195.581 21.732 195.521 22.62 195.521 23.7C195.521 24.78 195.581 25.674 195.701 26.382C195.821 27.078 195.989 27.624 196.205 28.02C196.421 28.416 196.661 28.698 196.925 28.866C197.201 29.022 197.483 29.1 197.771 29.1ZM202.55 32.7V28.74H203.45C203.45 28.74 203.516 28.602 203.648 28.326C203.792 28.05 203.936 27.636 204.08 27.084C204.224 26.532 204.314 25.854 204.35 25.05L204.71 17.4H210.56V28.74H211.73V32.7H210.74C210.608 32.34 210.494 31.932 210.398 31.476C210.314 31.032 210.248 30.54 210.2 30H204.08C204.032 30.54 203.96 31.032 203.864 31.476C203.78 31.932 203.672 32.34 203.54 32.7H202.55ZM205.07 28.74H208.94V18.66H206.276L205.97 25.05C205.934 25.854 205.838 26.532 205.682 27.084C205.538 27.636 205.4 28.05 205.268 28.326C205.136 28.602 205.07 28.74 205.07 28.74ZM213.439 30V17.4H220.459V30H218.839V18.66H215.059V30H213.439ZM222.984 30V17.4H224.604V26.76H224.694L228.294 17.4H230.184V30H228.564V20.64H228.474L224.784 30H222.984ZM236.304 30.18C235.464 30.18 234.75 29.994 234.162 29.622C233.574 29.238 233.124 28.578 232.812 27.642C232.5 26.694 232.344 25.38 232.344 23.7C232.344 22.02 232.494 20.712 232.794 19.776C233.106 18.828 233.544 18.168 234.108 17.796C234.672 17.412 235.344 17.22 236.124 17.22C236.664 17.22 237.18 17.256 237.672 17.328C238.176 17.4 238.56 17.484 238.824 17.58V18.39H236.484C236.004 18.39 235.572 18.54 235.188 18.84C234.816 19.14 234.516 19.674 234.288 20.442C234.072 21.198 233.964 22.284 233.964 23.7C233.964 25.104 234.078 26.19 234.306 26.958C234.534 27.726 234.846 28.26 235.242 28.56C235.65 28.86 236.124 29.01 236.664 29.01H239.004V29.82C238.74 29.904 238.356 29.982 237.852 30.054C237.36 30.138 236.844 30.18 236.304 30.18ZM239.627 30L242.687 17.4H245.027L248.087 30H246.467L245.657 26.76H242.057L241.247 30H239.627ZM242.327 25.5H245.387L243.893 19.2H243.821L242.327 25.5ZM250.606 30V18.66H247.726V17.4H255.106V18.66H252.226V30H250.606ZM259.42 30.18C258.88 30.18 258.376 30.15 257.908 30.09C257.452 30.042 256.996 29.952 256.54 29.82V17.4H258.16V22.53C258.388 22.482 258.676 22.44 259.024 22.404C259.384 22.368 259.696 22.35 259.96 22.35C261.136 22.35 262 22.65 262.552 23.25C263.104 23.85 263.38 24.87 263.38 26.31C263.38 27.702 263.08 28.698 262.48 29.298C261.88 29.886 260.86 30.18 259.42 30.18ZM258.16 29.01H259.42C260.236 29.01 260.83 28.806 261.202 28.398C261.574 27.99 261.76 27.294 261.76 26.31C261.76 25.314 261.574 24.618 261.202 24.222C260.83 23.814 260.236 23.61 259.42 23.61H258.16V29.01ZM268.964 30.18C268.124 30.18 267.41 29.994 266.822 29.622C266.234 29.238 265.784 28.578 265.472 27.642C265.16 26.694 265.004 25.38 265.004 23.7C265.004 22.02 265.154 20.712 265.454 19.776C265.766 18.828 266.204 18.168 266.768 17.796C267.332 17.412 268.004 17.22 268.784 17.22C269.324 17.22 269.84 17.256 270.332 17.328C270.836 17.4 271.22 17.484 271.484 17.58V18.39H269.144C268.664 18.39 268.232 18.54 267.848 18.84C267.476 19.14 267.176 19.674 266.948 20.442C266.732 21.198 266.624 22.284 266.624 23.7C266.624 25.104 266.738 26.19 266.966 26.958C267.194 27.726 267.506 28.26 267.902 28.56C268.31 28.86 268.784 29.01 269.324 29.01H271.664V29.82C271.4 29.904 271.016 29.982 270.512 30.054C270.02 30.138 269.504 30.18 268.964 30.18ZM273.187 30.18C272.923 30.18 272.677 30.15 272.449 30.09C272.221 30.03 272.107 30 272.107 30V29.19C272.563 29.19 272.893 29.088 273.097 28.884C273.313 28.668 273.463 28.38 273.547 28.02L273.907 26.49C274.039 25.902 274.219 25.446 274.447 25.122C274.675 24.798 274.945 24.588 275.257 24.492V24.42C274.873 24.36 274.489 24.198 274.105 23.934C273.733 23.67 273.427 23.298 273.187 22.818C272.947 22.326 272.827 21.72 272.827 21C272.827 19.644 273.127 18.678 273.727 18.102C274.327 17.514 275.347 17.22 276.787 17.22C277.327 17.22 277.831 17.25 278.299 17.31C278.767 17.358 279.223 17.448 279.667 17.58V30H278.047V24.87H277.327C276.967 24.87 276.631 24.984 276.319 25.212C276.007 25.44 275.773 25.866 275.617 26.49L275.257 28.02C275.077 28.74 274.807 29.28 274.447 29.64C274.099 30 273.679 30.18 273.187 30.18ZM276.787 23.61H278.047V18.39H276.787C275.983 18.39 275.389 18.588 275.005 18.984C274.633 19.38 274.447 20.052 274.447 21C274.447 21.948 274.633 22.62 275.005 23.016C275.389 23.412 275.983 23.61 276.787 23.61ZM286.687 30V17.4H288.307V22.98H292.087V17.4H293.707V30H292.087V24.24H288.307V30H286.687ZM295.332 30L298.392 17.4H300.732L303.792 30H302.172L301.362 26.76H297.762L296.952 30H295.332ZM298.032 25.5H301.092L299.598 19.2H299.526L298.032 25.5ZM313.507 30.18C312.667 30.18 311.953 29.994 311.365 29.622C310.777 29.238 310.327 28.578 310.015 27.642C309.703 26.694 309.547 25.38 309.547 23.7C309.547 22.02 309.697 20.712 309.997 19.776C310.309 18.828 310.747 18.168 311.311 17.796C311.875 17.412 312.547 17.22 313.327 17.22C313.867 17.22 314.383 17.256 314.875 17.328C315.379 17.4 315.763 17.484 316.027 17.58V18.39H313.687C313.207 18.39 312.775 18.54 312.391 18.84C312.019 19.14 311.719 19.674 311.491 20.442C311.275 21.198 311.167 22.284 311.167 23.7C311.167 25.104 311.281 26.19 311.509 26.958C311.737 27.726 312.049 28.26 312.445 28.56C312.853 28.86 313.327 29.01 313.867 29.01H316.207V29.82C315.943 29.904 315.559 29.982 315.055 30.054C314.563 30.138 314.047 30.18 313.507 30.18ZM324.21 30.18C323.67 30.18 323.22 30 322.86 29.64C322.512 29.28 322.272 28.74 322.14 28.02L321.69 25.68C321.57 25.044 321.354 24.618 321.042 24.402C320.742 24.174 320.388 24.06 319.98 24.06H319.35V30H317.73V17.4H319.35V22.8H319.98C320.292 22.8 320.586 22.686 320.862 22.458C321.138 22.23 321.354 21.804 321.51 21.18L321.96 19.38C322.14 18.66 322.404 18.12 322.752 17.76C323.112 17.4 323.538 17.22 324.03 17.22C324.342 17.22 324.6 17.25 324.804 17.31C325.008 17.37 325.11 17.4 325.11 17.4V18.21C324.666 18.21 324.336 18.318 324.12 18.534C323.916 18.738 323.766 19.02 323.67 19.38L323.22 21.18C323.028 21.924 322.812 22.452 322.572 22.764C322.332 23.064 322.008 23.274 321.6 23.394V23.466C322.056 23.586 322.434 23.796 322.734 24.096C323.034 24.396 323.256 24.924 323.4 25.68L323.85 28.02C323.91 28.332 324.054 28.608 324.282 28.848C324.51 29.076 324.846 29.19 325.29 29.19V30C325.29 30 325.188 30.03 324.984 30.09C324.78 30.15 324.522 30.18 324.21 30.18ZM326.642 30V17.4H328.262V26.76H328.352L331.952 17.4H333.842V30H332.222V20.64H332.132L328.442 30H326.642ZM335.283 32.7V28.74H336.183C336.183 28.74 336.249 28.602 336.381 28.326C336.525 28.05 336.669 27.636 336.813 27.084C336.957 26.532 337.047 25.854 337.083 25.05L337.443 17.4H343.293V28.74H344.463V32.7H343.473C343.341 32.34 343.227 31.932 343.131 31.476C343.047 31.032 342.981 30.54 342.933 30H336.813C336.765 30.54 336.693 31.032 336.597 31.476C336.513 31.932 336.405 32.34 336.273 32.7H335.283ZM337.803 28.74H341.673V18.66H339.009L338.703 25.05C338.667 25.854 338.571 26.532 338.415 27.084C338.271 27.636 338.133 28.05 338.001 28.326C337.869 28.602 337.803 28.74 337.803 28.74ZM352.651 30.18C352.111 30.18 351.661 30 351.301 29.64C350.953 29.28 350.713 28.74 350.581 28.02L350.131 25.68C350.011 25.044 349.795 24.618 349.483 24.402C349.183 24.174 348.829 24.06 348.421 24.06H347.791V30H346.171V17.4H347.791V22.8H348.421C348.733 22.8 349.027 22.686 349.303 22.458C349.579 22.23 349.795 21.804 349.951 21.18L350.401 19.38C350.581 18.66 350.845 18.12 351.193 17.76C351.553 17.4 351.979 17.22 352.471 17.22C352.783 17.22 353.041 17.25 353.245 17.31C353.449 17.37 353.551 17.4 353.551 17.4V18.21C353.107 18.21 352.777 18.318 352.561 18.534C352.357 18.738 352.207 19.02 352.111 19.38L351.661 21.18C351.469 21.924 351.253 22.452 351.013 22.764C350.773 23.064 350.449 23.274 350.041 23.394V23.466C350.497 23.586 350.875 23.796 351.175 24.096C351.475 24.396 351.697 24.924 351.841 25.68L352.291 28.02C352.351 28.332 352.495 28.608 352.723 28.848C352.951 29.076 353.287 29.19 353.731 29.19V30C353.731 30 353.629 30.03 353.425 30.09C353.221 30.15 352.963 30.18 352.651 30.18ZM355.083 30V17.4H356.703V26.76H356.793L360.393 17.4H362.283V30H360.663V20.64H360.573L356.883 30H355.083Z" fill="white"/>
</svg>
