<svg width="256" height="47" viewBox="0 0 256 47" fill="none" xmlns="http://www.w3.org/2000/svg">
<circle cx="4" cy="24" r="4" fill="#C0622E"/>
<circle cx="252" cy="24" r="4" fill="#C0622E"/>
<path d="M132 23.5L143 0H8L19 23.5L8 47H143L132 23.5Z" fill="#C0622E"/>
<path d="M237 23.5L248 0H113L124 23.5L113 47H248L237 23.5Z" fill="#C0622E"/>
<path d="M52.2591 31.7V27.74H53.1591C53.1591 27.74 53.2251 27.602 53.3571 27.326C53.5011 27.05 53.6451 26.636 53.7891 26.084C53.9331 25.532 54.0231 24.854 54.0591 24.05L54.4191 16.4H60.2691V27.74H61.4391V31.7H60.4491C60.3171 31.34 60.2031 30.932 60.1071 30.476C60.0231 30.032 59.9571 29.54 59.9091 29H53.7891C53.7411 29.54 53.6691 30.032 53.5731 30.476C53.4891 30.932 53.3811 31.34 53.2491 31.7H52.2591ZM54.7791 27.74H58.6491V17.66H55.9851L55.6791 24.05C55.6431 24.854 55.5471 25.532 55.3911 26.084C55.2471 26.636 55.1091 27.05 54.9771 27.326C54.8451 27.602 54.7791 27.74 54.7791 27.74ZM66.4819 29.18C65.6779 29.18 64.9819 28.994 64.3939 28.622C63.8179 28.238 63.3739 27.578 63.0619 26.642C62.7619 25.694 62.6119 24.38 62.6119 22.7C62.6119 21.02 62.7619 19.712 63.0619 18.776C63.3739 17.828 63.8179 17.168 64.3939 16.796C64.9819 16.412 65.6779 16.22 66.4819 16.22C67.2979 16.22 67.9939 16.412 68.5699 16.796C69.1459 17.168 69.5839 17.828 69.8839 18.776C70.1959 19.712 70.3519 21.02 70.3519 22.7C70.3519 24.38 70.1959 25.694 69.8839 26.642C69.5839 27.578 69.1459 28.238 68.5699 28.622C67.9939 28.994 67.2979 29.18 66.4819 29.18ZM66.4819 28.1C66.7699 28.1 67.0459 28.022 67.3099 27.866C67.5859 27.698 67.8319 27.416 68.0479 27.02C68.2639 26.624 68.4319 26.078 68.5519 25.382C68.6719 24.674 68.7319 23.78 68.7319 22.7C68.7319 21.62 68.6719 20.732 68.5519 20.036C68.4319 19.328 68.2639 18.776 68.0479 18.38C67.8319 17.984 67.5859 17.708 67.3099 17.552C67.0459 17.384 66.7699 17.3 66.4819 17.3C66.1939 17.3 65.9119 17.384 65.6359 17.552C65.3719 17.708 65.1319 17.984 64.9159 18.38C64.6999 18.776 64.5319 19.328 64.4119 20.036C64.2919 20.732 64.2319 21.62 64.2319 22.7C64.2319 23.78 64.2919 24.674 64.4119 25.382C64.5319 26.078 64.6999 26.624 64.9159 27.02C65.1319 27.416 65.3719 27.698 65.6359 27.866C65.9119 28.022 66.1939 28.1 66.4819 28.1ZM75.3968 29.18C74.8568 29.18 74.3528 29.15 73.8848 29.09C73.4288 29.042 72.9728 28.952 72.5168 28.82V16.4H78.8168V17.66H74.1368V21.35H75.3968C76.3568 21.35 77.1248 21.482 77.7008 21.746C78.2888 21.998 78.7088 22.418 78.9608 23.006C79.2248 23.582 79.3568 24.35 79.3568 25.31C79.3568 26.702 79.0568 27.698 78.4568 28.298C77.8568 28.886 76.8368 29.18 75.3968 29.18ZM74.1368 28.01H75.3968C76.2128 28.01 76.8068 27.806 77.1788 27.398C77.5508 26.99 77.7368 26.294 77.7368 25.31C77.7368 24.314 77.5508 23.618 77.1788 23.222C76.8068 22.814 76.2128 22.61 75.3968 22.61H74.1368V28.01ZM80.4411 29L83.5011 16.4H85.8411L88.9011 29H87.2811L86.4711 25.76H82.8711L82.0611 29H80.4411ZM83.1411 24.5H86.2011L84.7071 18.2H84.6351L83.1411 24.5ZM93.3968 29.18C92.8568 29.18 92.3528 29.15 91.8848 29.09C91.4288 29.042 90.9728 28.952 90.5168 28.82V16.58C90.9728 16.448 91.4288 16.358 91.8848 16.31C92.3528 16.25 92.8568 16.22 93.3968 16.22C94.6568 16.22 95.5688 16.496 96.1328 17.048C96.7088 17.588 96.9968 18.422 96.9968 19.55C96.9968 20.09 96.8888 20.594 96.6728 21.062C96.4688 21.53 96.0968 21.914 95.5568 22.214V22.286C96.2768 22.49 96.7868 22.886 97.0868 23.474C97.3868 24.062 97.5368 24.764 97.5368 25.58C97.5368 26.84 97.2308 27.758 96.6188 28.334C96.0068 28.898 94.9328 29.18 93.3968 29.18ZM92.1368 28.01H93.3968C94.2968 28.01 94.9388 27.824 95.3228 27.452C95.7188 27.068 95.9168 26.444 95.9168 25.58C95.9168 24.632 95.7188 23.96 95.3228 23.564C94.9388 23.168 94.2968 22.97 93.3968 22.97H92.1368V28.01ZM92.1368 21.8H93.2168C93.9368 21.8 94.4768 21.62 94.8368 21.26C95.1968 20.888 95.3768 20.318 95.3768 19.55C95.3768 18.83 95.1968 18.29 94.8368 17.93C94.4768 17.57 93.9368 17.39 93.2168 17.39H92.1368V21.8ZM99.5168 29V16.4H101.137V25.76H101.227L104.827 16.4H106.717V29H105.097V19.64H105.007L101.317 29H99.5168ZM111.038 29V17.66H108.158V16.4H115.538V17.66H112.658V29H111.038ZM119.852 29.18C119.312 29.18 118.808 29.15 118.34 29.09C117.884 29.042 117.428 28.952 116.972 28.82V16.4H118.592V21.53C118.82 21.482 119.108 21.44 119.456 21.404C119.816 21.368 120.128 21.35 120.392 21.35C121.568 21.35 122.432 21.65 122.984 22.25C123.536 22.85 123.812 23.87 123.812 25.31C123.812 26.702 123.512 27.698 122.912 28.298C122.312 28.886 121.292 29.18 119.852 29.18ZM118.592 28.01H119.852C120.668 28.01 121.262 27.806 121.634 27.398C122.006 26.99 122.192 26.294 122.192 25.31C122.192 24.314 122.006 23.618 121.634 23.222C121.262 22.814 120.668 22.61 119.852 22.61H118.592V28.01ZM133.176 29.18C132.636 29.18 132.132 29.15 131.664 29.09C131.208 29.042 130.752 28.952 130.296 28.82V16.58C130.752 16.448 131.208 16.358 131.664 16.31C132.132 16.25 132.636 16.22 133.176 16.22C134.436 16.22 135.348 16.496 135.912 17.048C136.488 17.588 136.776 18.422 136.776 19.55C136.776 20.09 136.668 20.594 136.452 21.062C136.248 21.53 135.876 21.914 135.336 22.214V22.286C136.056 22.49 136.566 22.886 136.866 23.474C137.166 24.062 137.316 24.764 137.316 25.58C137.316 26.84 137.01 27.758 136.398 28.334C135.786 28.898 134.712 29.18 133.176 29.18ZM131.916 28.01H133.176C134.076 28.01 134.718 27.824 135.102 27.452C135.498 27.068 135.696 26.444 135.696 25.58C135.696 24.632 135.498 23.96 135.102 23.564C134.718 23.168 134.076 22.97 133.176 22.97H131.916V28.01ZM131.916 21.8H132.996C133.716 21.8 134.256 21.62 134.616 21.26C134.976 20.888 135.156 20.318 135.156 19.55C135.156 18.83 134.976 18.29 134.616 17.93C134.256 17.57 133.716 17.39 132.996 17.39H131.916V21.8ZM150.276 29.18C149.736 29.18 149.286 29 148.926 28.64C148.578 28.28 148.338 27.74 148.206 27.02L147.756 24.68C147.636 24.044 147.42 23.618 147.108 23.402C146.808 23.174 146.454 23.06 146.046 23.06H145.416V29H143.796V16.4H145.416V21.8H146.046C146.358 21.8 146.652 21.686 146.928 21.458C147.204 21.23 147.42 20.804 147.576 20.18L148.026 18.38C148.206 17.66 148.47 17.12 148.818 16.76C149.178 16.4 149.604 16.22 150.096 16.22C150.408 16.22 150.666 16.25 150.87 16.31C151.074 16.37 151.176 16.4 151.176 16.4V17.21C150.732 17.21 150.402 17.318 150.186 17.534C149.982 17.738 149.832 18.02 149.736 18.38L149.286 20.18C149.094 20.924 148.878 21.452 148.638 21.764C148.398 22.064 148.074 22.274 147.666 22.394V22.466C148.122 22.586 148.5 22.796 148.8 23.096C149.1 23.396 149.322 23.924 149.466 24.68L149.916 27.02C149.976 27.332 150.12 27.608 150.348 27.848C150.576 28.076 150.912 28.19 151.356 28.19V29C151.356 29 151.254 29.03 151.05 29.09C150.846 29.15 150.588 29.18 150.276 29.18ZM156.042 29.18C155.238 29.18 154.542 28.994 153.954 28.622C153.378 28.238 152.934 27.578 152.622 26.642C152.322 25.694 152.172 24.38 152.172 22.7C152.172 21.02 152.322 19.712 152.622 18.776C152.934 17.828 153.378 17.168 153.954 16.796C154.542 16.412 155.238 16.22 156.042 16.22C156.858 16.22 157.554 16.412 158.13 16.796C158.706 17.168 159.144 17.828 159.444 18.776C159.756 19.712 159.912 21.02 159.912 22.7C159.912 24.38 159.756 25.694 159.444 26.642C159.144 27.578 158.706 28.238 158.13 28.622C157.554 28.994 156.858 29.18 156.042 29.18ZM156.042 28.1C156.33 28.1 156.606 28.022 156.87 27.866C157.146 27.698 157.392 27.416 157.608 27.02C157.824 26.624 157.992 26.078 158.112 25.382C158.232 24.674 158.292 23.78 158.292 22.7C158.292 21.62 158.232 20.732 158.112 20.036C157.992 19.328 157.824 18.776 157.608 18.38C157.392 17.984 157.146 17.708 156.87 17.552C156.606 17.384 156.33 17.3 156.042 17.3C155.754 17.3 155.472 17.384 155.196 17.552C154.932 17.708 154.692 17.984 154.476 18.38C154.26 18.776 154.092 19.328 153.972 20.036C153.852 20.732 153.792 21.62 153.792 22.7C153.792 23.78 153.852 24.674 153.972 25.382C154.092 26.078 154.26 26.624 154.476 27.02C154.692 27.416 154.932 27.698 155.196 27.866C155.472 28.022 155.754 28.1 156.042 28.1ZM162.077 29V16.58C162.533 16.448 162.989 16.358 163.445 16.31C163.913 16.25 164.417 16.22 164.957 16.22C165.917 16.22 166.685 16.358 167.261 16.634C167.849 16.91 168.269 17.378 168.521 18.038C168.785 18.686 168.917 19.58 168.917 20.72C168.917 21.884 168.791 22.802 168.539 23.474C168.299 24.146 167.927 24.62 167.423 24.896C166.919 25.172 166.277 25.31 165.497 25.31C165.233 25.31 164.921 25.292 164.561 25.256C164.213 25.22 163.925 25.178 163.697 25.13V29H162.077ZM163.697 24.05H164.957C165.497 24.05 165.941 23.954 166.289 23.762C166.637 23.57 166.889 23.234 167.045 22.754C167.213 22.262 167.297 21.584 167.297 20.72C167.297 19.844 167.213 19.166 167.045 18.686C166.889 18.206 166.637 17.87 166.289 17.678C165.941 17.486 165.497 17.39 164.957 17.39H163.697V24.05ZM172.432 29.18C171.988 29.18 171.526 29.138 171.046 29.054C170.566 28.982 170.188 28.904 169.912 28.82V28.01H172.432C173.332 28.01 173.974 27.818 174.358 27.434C174.754 27.05 174.952 26.432 174.952 25.58C174.952 24.68 174.754 24.038 174.358 23.654C173.974 23.258 173.332 23.06 172.432 23.06H171.172V21.8H172.252C173.068 21.8 173.662 21.62 174.034 21.26C174.406 20.888 174.592 20.318 174.592 19.55C174.592 18.83 174.406 18.29 174.034 17.93C173.662 17.57 173.068 17.39 172.252 17.39H170.092V16.58C170.368 16.484 170.734 16.4 171.19 16.328C171.658 16.256 172.072 16.22 172.432 16.22C173.788 16.22 174.754 16.496 175.33 17.048C175.918 17.588 176.212 18.422 176.212 19.55C176.212 20.27 176.074 20.846 175.798 21.278C175.534 21.71 175.132 22.052 174.592 22.304V22.376C175.312 22.58 175.822 22.976 176.122 23.564C176.422 24.14 176.572 24.812 176.572 25.58C176.572 26.84 176.266 27.758 175.654 28.334C175.042 28.898 173.968 29.18 172.432 29.18ZM178.548 29V16.4H180.168V25.76H180.258L183.858 16.4H185.748V29H184.128V19.64H184.038L180.348 29H178.548ZM188.269 29V16.4H189.889V21.98H193.669V16.4H195.289V29H193.669V23.24H189.889V29H188.269ZM199.722 29.18C199.458 29.18 199.158 29.138 198.822 29.054C198.498 28.982 198.198 28.904 197.922 28.82V28.01H199.182C199.506 28.01 199.788 27.938 200.028 27.794C200.268 27.638 200.478 27.374 200.658 27.002C200.838 26.618 200.994 26.084 201.126 25.4C200.37 25.4 199.776 25.208 199.344 24.824C198.924 24.428 198.624 23.9 198.444 23.24L196.554 16.4H198.174L200.064 23.24C200.16 23.552 200.316 23.798 200.532 23.978C200.748 24.146 201.024 24.23 201.36 24.23L202.944 16.4H204.564L202.602 26.12C202.386 27.2 202.05 27.98 201.594 28.46C201.15 28.94 200.526 29.18 199.722 29.18Z" fill="white"/>
</svg>
