<svg width="203" height="47" viewBox="0 0 203 47" fill="none" xmlns="http://www.w3.org/2000/svg">
<circle cx="4" cy="24" r="4" fill="#2D431D"/>
<circle cx="199" cy="24" r="4" fill="#2D431D"/>
<path d="M184 23.5L195 0H60L71 23.5L60 47H195L184 23.5Z" fill="#2D431D"/>
<path d="M131 23.5L142 0H7L18 23.5L7 47H142L131 23.5Z" fill="#2D431D"/>
<path d="M40.7858 30L43.8458 17.4H46.1858L49.2458 30H47.6258L46.8158 26.76H43.2158L42.4058 30H40.7858ZM43.4858 25.5H46.5458L45.0518 19.2H44.9798L43.4858 25.5ZM53.7416 30.18C53.2016 30.18 52.6976 30.15 52.2296 30.09C51.7736 30.042 51.3176 29.952 50.8616 29.82V17.58C51.3176 17.448 51.7736 17.358 52.2296 17.31C52.6976 17.25 53.2016 17.22 53.7416 17.22C55.0016 17.22 55.9136 17.496 56.4776 18.048C57.0536 18.588 57.3416 19.422 57.3416 20.55C57.3416 21.09 57.2336 21.594 57.0176 22.062C56.8136 22.53 56.4416 22.914 55.9016 23.214V23.286C56.6216 23.49 57.1316 23.886 57.4316 24.474C57.7316 25.062 57.8816 25.764 57.8816 26.58C57.8816 27.84 57.5756 28.758 56.9636 29.334C56.3516 29.898 55.2776 30.18 53.7416 30.18ZM52.4816 29.01H53.7416C54.6416 29.01 55.2836 28.824 55.6676 28.452C56.0636 28.068 56.2616 27.444 56.2616 26.58C56.2616 25.632 56.0636 24.96 55.6676 24.564C55.2836 24.168 54.6416 23.97 53.7416 23.97H52.4816V29.01ZM52.4816 22.8H53.5616C54.2816 22.8 54.8216 22.62 55.1816 22.26C55.5416 21.888 55.7216 21.318 55.7216 20.55C55.7216 19.83 55.5416 19.29 55.1816 18.93C54.8216 18.57 54.2816 18.39 53.5616 18.39H52.4816V22.8ZM61.31 30V18.66H58.43V17.4H65.81V18.66H62.93V30H61.31ZM70.4028 30.18C69.5988 30.18 68.9028 29.994 68.3148 29.622C67.7388 29.238 67.2948 28.578 66.9828 27.642C66.6828 26.694 66.5328 25.38 66.5328 23.7C66.5328 22.02 66.6828 20.712 66.9828 19.776C67.2948 18.828 67.7388 18.168 68.3148 17.796C68.9028 17.412 69.5988 17.22 70.4028 17.22C71.2188 17.22 71.9148 17.412 72.4908 17.796C73.0668 18.168 73.5048 18.828 73.8048 19.776C74.1168 20.712 74.2728 22.02 74.2728 23.7C74.2728 25.38 74.1168 26.694 73.8048 27.642C73.5048 28.578 73.0668 29.238 72.4908 29.622C71.9148 29.994 71.2188 30.18 70.4028 30.18ZM70.4028 29.1C70.6908 29.1 70.9668 29.022 71.2308 28.866C71.5068 28.698 71.7528 28.416 71.9688 28.02C72.1848 27.624 72.3528 27.078 72.4728 26.382C72.5928 25.674 72.6528 24.78 72.6528 23.7C72.6528 22.62 72.5928 21.732 72.4728 21.036C72.3528 20.328 72.1848 19.776 71.9688 19.38C71.7528 18.984 71.5068 18.708 71.2308 18.552C70.9668 18.384 70.6908 18.3 70.4028 18.3C70.1148 18.3 69.8328 18.384 69.5568 18.552C69.2928 18.708 69.0528 18.984 68.8368 19.38C68.6208 19.776 68.4528 20.328 68.3328 21.036C68.2128 21.732 68.1528 22.62 68.1528 23.7C68.1528 24.78 68.2128 25.674 68.3328 26.382C68.4528 27.078 68.6208 27.624 68.8368 28.02C69.0528 28.416 69.2928 28.698 69.5568 28.866C69.8328 29.022 70.1148 29.1 70.4028 29.1ZM76.4377 30V17.58C76.8937 17.448 77.3497 17.358 77.8057 17.31C78.2737 17.25 78.7777 17.22 79.3177 17.22C80.2777 17.22 81.0457 17.358 81.6217 17.634C82.2097 17.91 82.6297 18.378 82.8817 19.038C83.1457 19.686 83.2777 20.58 83.2777 21.72C83.2777 22.884 83.1517 23.802 82.8997 24.474C82.6597 25.146 82.2877 25.62 81.7837 25.896C81.2797 26.172 80.6377 26.31 79.8577 26.31C79.5937 26.31 79.2817 26.292 78.9217 26.256C78.5737 26.22 78.2857 26.178 78.0577 26.13V30H76.4377ZM78.0577 25.05H79.3177C79.8577 25.05 80.3017 24.954 80.6497 24.762C80.9977 24.57 81.2497 24.234 81.4057 23.754C81.5737 23.262 81.6577 22.584 81.6577 21.72C81.6577 20.844 81.5737 20.166 81.4057 19.686C81.2497 19.206 80.9977 18.87 80.6497 18.678C80.3017 18.486 79.8577 18.39 79.3177 18.39H78.0577V25.05ZM85.262 30V17.4H86.882V26.76H86.972L90.572 17.4H92.462V30H90.842V20.64H90.752L87.062 30H85.262ZM96.5127 30.18C96.0687 30.18 95.6067 30.138 95.1267 30.054C94.6467 29.982 94.2687 29.904 93.9927 29.82V29.01H96.5127C97.4127 29.01 98.0547 28.818 98.4387 28.434C98.8347 28.05 99.0327 27.432 99.0327 26.58C99.0327 25.68 98.8347 25.038 98.4387 24.654C98.0547 24.258 97.4127 24.06 96.5127 24.06H95.2527V22.8H96.3327C97.1487 22.8 97.7427 22.62 98.1147 22.26C98.4867 21.888 98.6727 21.318 98.6727 20.55C98.6727 19.83 98.4867 19.29 98.1147 18.93C97.7427 18.57 97.1487 18.39 96.3327 18.39H94.1727V17.58C94.4487 17.484 94.8147 17.4 95.2707 17.328C95.7387 17.256 96.1527 17.22 96.5127 17.22C97.8687 17.22 98.8347 17.496 99.4107 18.048C99.9987 18.588 100.293 19.422 100.293 20.55C100.293 21.27 100.155 21.846 99.8787 22.278C99.6147 22.71 99.2127 23.052 98.6727 23.304V23.376C99.3927 23.58 99.9027 23.976 100.203 24.564C100.503 25.14 100.653 25.812 100.653 26.58C100.653 27.84 100.347 28.758 99.7347 29.334C99.1227 29.898 98.0487 30.18 96.5127 30.18ZM106.139 30.18C105.335 30.18 104.639 29.994 104.051 29.622C103.475 29.238 103.031 28.578 102.719 27.642C102.419 26.694 102.269 25.38 102.269 23.7C102.269 22.02 102.419 20.712 102.719 19.776C103.031 18.828 103.475 18.168 104.051 17.796C104.639 17.412 105.335 17.22 106.139 17.22C106.955 17.22 107.651 17.412 108.227 17.796C108.803 18.168 109.241 18.828 109.541 19.776C109.853 20.712 110.009 22.02 110.009 23.7C110.009 25.38 109.853 26.694 109.541 27.642C109.241 28.578 108.803 29.238 108.227 29.622C107.651 29.994 106.955 30.18 106.139 30.18ZM106.139 29.1C106.427 29.1 106.703 29.022 106.967 28.866C107.243 28.698 107.489 28.416 107.705 28.02C107.921 27.624 108.089 27.078 108.209 26.382C108.329 25.674 108.389 24.78 108.389 23.7C108.389 22.62 108.329 21.732 108.209 21.036C108.089 20.328 107.921 19.776 107.705 19.38C107.489 18.984 107.243 18.708 106.967 18.552C106.703 18.384 106.427 18.3 106.139 18.3C105.851 18.3 105.569 18.384 105.293 18.552C105.029 18.708 104.789 18.984 104.573 19.38C104.357 19.776 104.189 20.328 104.069 21.036C103.949 21.732 103.889 22.62 103.889 23.7C103.889 24.78 103.949 25.674 104.069 26.382C104.189 27.078 104.357 27.624 104.573 28.02C104.789 28.416 105.029 28.698 105.293 28.866C105.569 29.022 105.851 29.1 106.139 29.1ZM115.054 30.18C114.514 30.18 114.01 30.15 113.542 30.09C113.086 30.042 112.63 29.952 112.174 29.82V17.58C112.63 17.448 113.086 17.358 113.542 17.31C114.01 17.25 114.514 17.22 115.054 17.22C116.314 17.22 117.226 17.496 117.79 18.048C118.366 18.588 118.654 19.422 118.654 20.55C118.654 21.09 118.546 21.594 118.33 22.062C118.126 22.53 117.754 22.914 117.214 23.214V23.286C117.934 23.49 118.444 23.886 118.744 24.474C119.044 25.062 119.194 25.764 119.194 26.58C119.194 27.84 118.888 28.758 118.276 29.334C117.664 29.898 116.59 30.18 115.054 30.18ZM113.794 29.01H115.054C115.954 29.01 116.596 28.824 116.98 28.452C117.376 28.068 117.574 27.444 117.574 26.58C117.574 25.632 117.376 24.96 116.98 24.564C116.596 24.168 115.954 23.97 115.054 23.97H113.794V29.01ZM113.794 22.8H114.874C115.594 22.8 116.134 22.62 116.494 22.26C116.854 21.888 117.034 21.318 117.034 20.55C117.034 19.83 116.854 19.29 116.494 18.93C116.134 18.57 115.594 18.39 114.874 18.39H113.794V22.8ZM120.274 30L123.334 17.4H125.674L128.734 30H127.114L126.304 26.76H122.704L121.894 30H120.274ZM122.974 25.5H126.034L124.54 19.2H124.468L122.974 25.5ZM131.253 30V18.66H128.373V17.4H135.753V18.66H132.873V30H131.253ZM140.068 30.18C139.528 30.18 139.024 30.15 138.556 30.09C138.1 30.042 137.644 29.952 137.188 29.82V17.4H138.808V22.53C139.036 22.482 139.324 22.44 139.672 22.404C140.032 22.368 140.344 22.35 140.608 22.35C141.784 22.35 142.648 22.65 143.2 23.25C143.752 23.85 144.028 24.87 144.028 26.31C144.028 27.702 143.728 28.698 143.128 29.298C142.528 29.886 141.508 30.18 140.068 30.18ZM138.808 29.01H140.068C140.884 29.01 141.478 28.806 141.85 28.398C142.222 27.99 142.408 27.294 142.408 26.31C142.408 25.314 142.222 24.618 141.85 24.222C141.478 23.814 140.884 23.61 140.068 23.61H138.808V29.01ZM149.612 30.18C148.772 30.18 148.058 29.994 147.47 29.622C146.882 29.238 146.432 28.578 146.12 27.642C145.808 26.694 145.652 25.38 145.652 23.7C145.652 22.02 145.802 20.712 146.102 19.776C146.414 18.828 146.852 18.168 147.416 17.796C147.98 17.412 148.652 17.22 149.432 17.22C149.972 17.22 150.488 17.256 150.98 17.328C151.484 17.4 151.868 17.484 152.132 17.58V18.39H149.792C149.312 18.39 148.88 18.54 148.496 18.84C148.124 19.14 147.824 19.674 147.596 20.442C147.38 21.198 147.272 22.284 147.272 23.7C147.272 25.104 147.386 26.19 147.614 26.958C147.842 27.726 148.154 28.26 148.55 28.56C148.958 28.86 149.432 29.01 149.972 29.01H152.312V29.82C152.048 29.904 151.664 29.982 151.16 30.054C150.668 30.138 150.152 30.18 149.612 30.18ZM153.834 30.18C153.57 30.18 153.324 30.15 153.096 30.09C152.868 30.03 152.754 30 152.754 30V29.19C153.21 29.19 153.54 29.088 153.744 28.884C153.96 28.668 154.11 28.38 154.194 28.02L154.554 26.49C154.686 25.902 154.866 25.446 155.094 25.122C155.322 24.798 155.592 24.588 155.904 24.492V24.42C155.52 24.36 155.136 24.198 154.752 23.934C154.38 23.67 154.074 23.298 153.834 22.818C153.594 22.326 153.474 21.72 153.474 21C153.474 19.644 153.774 18.678 154.374 18.102C154.974 17.514 155.994 17.22 157.434 17.22C157.974 17.22 158.478 17.25 158.946 17.31C159.414 17.358 159.87 17.448 160.314 17.58V30H158.694V24.87H157.974C157.614 24.87 157.278 24.984 156.966 25.212C156.654 25.44 156.42 25.866 156.264 26.49L155.904 28.02C155.724 28.74 155.454 29.28 155.094 29.64C154.746 30 154.326 30.18 153.834 30.18ZM157.434 23.61H158.694V18.39H157.434C156.63 18.39 156.036 18.588 155.652 18.984C155.28 19.38 155.094 20.052 155.094 21C155.094 21.948 155.28 22.62 155.652 23.016C156.036 23.412 156.63 23.61 157.434 23.61Z" fill="white"/>
</svg>
