<svg width="363" height="47" viewBox="0 0 363 47" fill="none" xmlns="http://www.w3.org/2000/svg">
<circle cx="106" cy="24" r="4" fill="#2D431D"/>
<circle cx="249" cy="24" r="4" fill="#2D431D"/>
<path d="M302.719 23.5L327 0H29L53.2815 23.5L29 47H327L302.719 23.5Z" fill="#2D431D"/>
<circle cx="359" cy="24" r="4" fill="#2D431D"/>
<circle cx="4" cy="24" r="4" fill="#2D431D"/>
<path d="M132 23.5L143 0H8L19 23.5L8 47H143L132 23.5Z" fill="#2D431D"/>
<path d="M344 23.5L355 0H220L231 23.5L220 47H355L344 23.5Z" fill="#2D431D"/>
<path d="M91.2922 30V17.4H98.3122V30H96.6922V18.66H92.9122V30H91.2922ZM100.837 30V17.4H106.957V18.66H102.457V22.8H106.417V24.06H102.457V28.74H106.957V30H100.837ZM108.941 30V17.58C109.397 17.448 109.853 17.358 110.309 17.31C110.777 17.25 111.281 17.22 111.821 17.22C112.781 17.22 113.549 17.358 114.125 17.634C114.713 17.91 115.133 18.378 115.385 19.038C115.649 19.686 115.781 20.58 115.781 21.72C115.781 22.884 115.655 23.802 115.403 24.474C115.163 25.146 114.791 25.62 114.287 25.896C113.783 26.172 113.141 26.31 112.361 26.31C112.097 26.31 111.785 26.292 111.425 26.256C111.077 26.22 110.789 26.178 110.561 26.13V30H108.941ZM110.561 25.05H111.821C112.361 25.05 112.805 24.954 113.153 24.762C113.501 24.57 113.753 24.234 113.909 23.754C114.077 23.262 114.161 22.584 114.161 21.72C114.161 20.844 114.077 20.166 113.909 19.686C113.753 19.206 113.501 18.87 113.153 18.678C112.805 18.486 112.361 18.39 111.821 18.39H110.561V25.05ZM117.765 30V17.4H123.885V18.66H119.385V22.8H123.345V24.06H119.385V28.74H123.885V30H117.765ZM125.868 30V17.4H127.488V26.76H127.578L131.178 17.4H133.068V30H131.448V20.64H131.358L127.668 30H125.868ZM129.468 16.32C128.88 16.32 128.37 16.2 127.938 15.96C127.506 15.708 127.176 15.378 126.948 14.97L127.668 14.25C127.848 14.43 128.088 14.61 128.388 14.79C128.7 14.97 129.06 15.06 129.468 15.06C129.876 15.06 130.23 14.97 130.53 14.79C130.842 14.61 131.088 14.43 131.268 14.25L131.988 14.97C131.76 15.378 131.43 15.708 130.998 15.96C130.566 16.2 130.056 16.32 129.468 16.32ZM137.389 30V18.66H134.509V17.4H141.889V18.66H139.009V30H137.389ZM143.323 30V17.4H144.943V26.76H145.033L148.633 17.4H150.523V30H148.903V20.64H148.813L145.123 30H143.323ZM164.024 30.18C163.484 30.18 163.034 30 162.674 29.64C162.326 29.28 162.086 28.74 161.954 28.02L161.504 25.68C161.384 25.044 161.168 24.618 160.856 24.402C160.556 24.174 160.202 24.06 159.794 24.06H159.164V30H157.544V17.4H159.164V22.8H159.794C160.106 22.8 160.4 22.686 160.676 22.458C160.952 22.23 161.168 21.804 161.324 21.18L161.774 19.38C161.954 18.66 162.218 18.12 162.566 17.76C162.926 17.4 163.352 17.22 163.844 17.22C164.156 17.22 164.414 17.25 164.618 17.31C164.822 17.37 164.924 17.4 164.924 17.4V18.21C164.48 18.21 164.15 18.318 163.934 18.534C163.73 18.738 163.58 19.02 163.484 19.38L163.034 21.18C162.842 21.924 162.626 22.452 162.386 22.764C162.146 23.064 161.822 23.274 161.414 23.394V23.466C161.87 23.586 162.248 23.796 162.548 24.096C162.848 24.396 163.07 24.924 163.214 25.68L163.664 28.02C163.724 28.332 163.868 28.608 164.096 28.848C164.324 29.076 164.66 29.19 165.104 29.19V30C165.104 30 165.002 30.03 164.798 30.09C164.594 30.15 164.336 30.18 164.024 30.18ZM174.466 30.18C173.662 30.18 172.966 29.994 172.378 29.622C171.802 29.238 171.358 28.578 171.046 27.642C170.746 26.694 170.596 25.38 170.596 23.7C170.596 22.02 170.746 20.712 171.046 19.776C171.358 18.828 171.802 18.168 172.378 17.796C172.966 17.412 173.662 17.22 174.466 17.22C175.282 17.22 175.978 17.412 176.554 17.796C177.13 18.168 177.568 18.828 177.868 19.776C178.18 20.712 178.336 22.02 178.336 23.7C178.336 25.38 178.18 26.694 177.868 27.642C177.568 28.578 177.13 29.238 176.554 29.622C175.978 29.994 175.282 30.18 174.466 30.18ZM174.466 29.1C174.754 29.1 175.03 29.022 175.294 28.866C175.57 28.698 175.816 28.416 176.032 28.02C176.248 27.624 176.416 27.078 176.536 26.382C176.656 25.674 176.716 24.78 176.716 23.7C176.716 22.62 176.656 21.732 176.536 21.036C176.416 20.328 176.248 19.776 176.032 19.38C175.816 18.984 175.57 18.708 175.294 18.552C175.03 18.384 174.754 18.3 174.466 18.3C174.178 18.3 173.896 18.384 173.62 18.552C173.356 18.708 173.116 18.984 172.9 19.38C172.684 19.776 172.516 20.328 172.396 21.036C172.276 21.732 172.216 22.62 172.216 23.7C172.216 24.78 172.276 25.674 172.396 26.382C172.516 27.078 172.684 27.624 172.9 28.02C173.116 28.416 173.356 28.698 173.62 28.866C173.896 29.022 174.178 29.1 174.466 29.1ZM184.641 30.36V29.1C183.153 29.004 181.971 28.5 181.095 27.588C180.219 26.664 179.781 25.368 179.781 23.7C179.781 22.032 180.219 20.736 181.095 19.812C181.971 18.888 183.153 18.384 184.641 18.3V17.04H186.261V18.3C187.749 18.384 188.931 18.888 189.807 19.812C190.683 20.736 191.121 22.032 191.121 23.7C191.121 25.368 190.683 26.664 189.807 27.588C188.931 28.5 187.749 29.004 186.261 29.1V30.36H184.641ZM184.641 27.93V19.47C184.041 19.494 183.495 19.674 183.003 20.01C182.511 20.334 182.121 20.808 181.833 21.432C181.545 22.044 181.401 22.8 181.401 23.7C181.401 24.6 181.545 25.362 181.833 25.986C182.121 26.598 182.511 27.066 183.003 27.39C183.495 27.714 184.041 27.894 184.641 27.93ZM186.261 27.93C186.861 27.894 187.407 27.714 187.899 27.39C188.391 27.066 188.781 26.598 189.069 25.986C189.357 25.362 189.501 24.6 189.501 23.7C189.501 22.8 189.357 22.044 189.069 21.432C188.781 20.808 188.391 20.334 187.899 20.01C187.407 19.674 186.861 19.494 186.261 19.47V27.93ZM196.439 30.18C195.635 30.18 194.939 29.994 194.351 29.622C193.775 29.238 193.331 28.578 193.019 27.642C192.719 26.694 192.569 25.38 192.569 23.7C192.569 22.02 192.719 20.712 193.019 19.776C193.331 18.828 193.775 18.168 194.351 17.796C194.939 17.412 195.635 17.22 196.439 17.22C197.255 17.22 197.951 17.412 198.527 17.796C199.103 18.168 199.541 18.828 199.841 19.776C200.153 20.712 200.309 22.02 200.309 23.7C200.309 25.38 200.153 26.694 199.841 27.642C199.541 28.578 199.103 29.238 198.527 29.622C197.951 29.994 197.255 30.18 196.439 30.18ZM196.439 29.1C196.727 29.1 197.003 29.022 197.267 28.866C197.543 28.698 197.789 28.416 198.005 28.02C198.221 27.624 198.389 27.078 198.509 26.382C198.629 25.674 198.689 24.78 198.689 23.7C198.689 22.62 198.629 21.732 198.509 21.036C198.389 20.328 198.221 19.776 198.005 19.38C197.789 18.984 197.543 18.708 197.267 18.552C197.003 18.384 196.727 18.3 196.439 18.3C196.151 18.3 195.869 18.384 195.593 18.552C195.329 18.708 195.089 18.984 194.873 19.38C194.657 19.776 194.489 20.328 194.369 21.036C194.249 21.732 194.189 22.62 194.189 23.7C194.189 24.78 194.249 25.674 194.369 26.382C194.489 27.078 194.657 27.624 194.873 28.02C195.089 28.416 195.329 28.698 195.593 28.866C195.869 29.022 196.151 29.1 196.439 29.1ZM202.474 30V17.58C202.93 17.448 203.386 17.358 203.842 17.31C204.31 17.25 204.814 17.22 205.354 17.22C206.314 17.22 207.082 17.358 207.658 17.634C208.246 17.91 208.666 18.378 208.918 19.038C209.182 19.686 209.314 20.58 209.314 21.72C209.314 22.884 209.188 23.802 208.936 24.474C208.696 25.146 208.324 25.62 207.82 25.896C207.316 26.172 206.674 26.31 205.894 26.31C205.63 26.31 205.318 26.292 204.958 26.256C204.61 26.22 204.322 26.178 204.094 26.13V30H202.474ZM204.094 25.05H205.354C205.894 25.05 206.338 24.954 206.686 24.762C207.034 24.57 207.286 24.234 207.442 23.754C207.61 23.262 207.694 22.584 207.694 21.72C207.694 20.844 207.61 20.166 207.442 19.686C207.286 19.206 207.034 18.87 206.686 18.678C206.338 18.486 205.894 18.39 205.354 18.39H204.094V25.05ZM211.028 30L211.748 17.4H213.728L216.662 26.04H216.734L219.668 17.4H221.648L222.368 30H220.748L220.208 20.64H220.118L217.508 28.38H215.888L213.278 20.64H213.188L212.648 30H211.028ZM224.442 30.18C224.13 30.18 223.872 30.15 223.668 30.09C223.464 30.03 223.362 30 223.362 30V29.19C223.854 29.19 224.262 28.98 224.586 28.56C224.922 28.128 225.114 27.348 225.162 26.22L225.612 17.4H231.642V30H230.022V18.66H227.178L226.782 26.22C226.734 27.18 226.596 27.954 226.368 28.542C226.152 29.118 225.876 29.538 225.54 29.802C225.204 30.054 224.838 30.18 224.442 30.18ZM234.167 30V17.4H240.287V18.66H235.787V22.8H239.747V24.06H235.787V28.74H240.287V30H234.167ZM242.271 30V17.4H243.891V22.98H247.671V17.4H249.291V30H247.671V24.24H243.891V30H242.271ZM251.816 30V17.4H253.436V26.76H253.526L257.126 17.4H259.016V30H257.396V20.64H257.306L253.616 30H251.816ZM268.286 30.18C267.542 30.18 266.9 30.006 266.36 29.658C265.832 29.298 265.412 28.686 265.1 27.822C264.8 26.958 264.602 25.764 264.506 24.24H263.156V30H261.536V17.4H263.156V22.98H264.506C264.602 21.504 264.8 20.352 265.1 19.524C265.412 18.684 265.832 18.09 266.36 17.742C266.9 17.394 267.542 17.22 268.286 17.22C269.066 17.22 269.738 17.412 270.302 17.796C270.866 18.168 271.298 18.828 271.598 19.776C271.91 20.712 272.066 22.02 272.066 23.7C272.066 25.38 271.91 26.694 271.598 27.642C271.298 28.578 270.866 29.238 270.302 29.622C269.738 29.994 269.066 30.18 268.286 30.18ZM268.286 29.1C268.562 29.1 268.826 29.022 269.078 28.866C269.33 28.698 269.558 28.416 269.762 28.02C269.978 27.624 270.146 27.078 270.266 26.382C270.386 25.674 270.446 24.78 270.446 23.7C270.446 22.62 270.386 21.732 270.266 21.036C270.146 20.328 269.978 19.776 269.762 19.38C269.558 18.984 269.33 18.708 269.078 18.552C268.826 18.384 268.562 18.3 268.286 18.3C268.022 18.3 267.758 18.384 267.494 18.552C267.242 18.708 267.008 18.984 266.792 19.38C266.588 19.776 266.426 20.328 266.306 21.036C266.186 21.732 266.126 22.62 266.126 23.7C266.126 24.78 266.186 25.674 266.306 26.382C266.426 27.078 266.588 27.624 266.792 28.02C267.008 28.416 267.242 28.698 267.494 28.866C267.758 29.022 268.022 29.1 268.286 29.1Z" fill="white"/>
</svg>
