<svg width="244" height="47" viewBox="0 0 244 47" fill="none" xmlns="http://www.w3.org/2000/svg">
<circle cx="106" cy="24" r="4" fill="#2D431D"/>
<circle cx="4" cy="24" r="4" fill="#2D431D"/>
<circle cx="240" cy="24" r="4" fill="#2D431D"/>
<path d="M132 23.5L143 0H8L19 23.5L8 47H143L132 23.5Z" fill="#2D431D"/>
<path d="M225 23.5L236 0H101L112 23.5L101 47H236L225 23.5Z" fill="#2D431D"/>
<path d="M186.985 23.5L201 0H29L43.0148 23.5L29 47H201L186.985 23.5Z" fill="#2D431D"/>
<path d="M63.75 17.3636V29H62V18.8636H56.5227V29H54.7727V17.3636H63.75ZM69.9744 29.1761C69.1563 29.1761 68.4422 28.9886 67.8324 28.6136C67.2225 28.2386 66.7491 27.714 66.4119 27.0398C66.0748 26.3655 65.9062 25.5777 65.9062 24.6761C65.9062 23.7708 66.0748 22.9792 66.4119 22.3011C66.7491 21.6231 67.2225 21.0966 67.8324 20.7216C68.4422 20.3466 69.1563 20.1591 69.9744 20.1591C70.7926 20.1591 71.5066 20.3466 72.1165 20.7216C72.7263 21.0966 73.1998 21.6231 73.5369 22.3011C73.8741 22.9792 74.0426 23.7708 74.0426 24.6761C74.0426 25.5777 73.8741 26.3655 73.5369 27.0398C73.1998 27.714 72.7263 28.2386 72.1165 28.6136C71.5066 28.9886 70.7926 29.1761 69.9744 29.1761ZM69.9801 27.75C70.5104 27.75 70.9498 27.6098 71.2983 27.3295C71.6468 27.0492 71.9044 26.6761 72.071 26.2102C72.2415 25.7443 72.3267 25.2311 72.3267 24.6705C72.3267 24.1136 72.2415 23.6023 72.071 23.1364C71.9044 22.6667 71.6468 22.2898 71.2983 22.0057C70.9498 21.7216 70.5104 21.5795 69.9801 21.5795C69.446 21.5795 69.0028 21.7216 68.6506 22.0057C68.3021 22.2898 68.0426 22.6667 67.8722 23.1364C67.7055 23.6023 67.6222 24.1136 67.6222 24.6705C67.6222 25.2311 67.7055 25.7443 67.8722 26.2102C68.0426 26.6761 68.3021 27.0492 68.6506 27.3295C69.0028 27.6098 69.446 27.75 69.9801 27.75ZM75.9389 29V20.2727H77.6378V23.9318H78.456L81.3366 20.2727H83.4389L80.0582 24.517L83.4787 29H81.3707L78.7401 25.5114H77.6378V29H75.9389ZM87.3381 29.1932C86.785 29.1932 86.285 29.0909 85.8381 28.8864C85.3911 28.678 85.0369 28.3769 84.7756 27.983C84.518 27.589 84.3892 27.1061 84.3892 26.5341C84.3892 26.0417 84.4839 25.6364 84.6733 25.3182C84.8627 25 85.1184 24.7481 85.4403 24.5625C85.7623 24.3769 86.1222 24.2367 86.5199 24.142C86.9176 24.0473 87.3229 23.9754 87.7358 23.9261C88.2585 23.8655 88.6828 23.8163 89.0085 23.7784C89.3343 23.7367 89.571 23.6705 89.7188 23.5795C89.8665 23.4886 89.9403 23.3409 89.9403 23.1364V23.0966C89.9403 22.6004 89.8002 22.2159 89.5199 21.9432C89.2434 21.6705 88.8305 21.5341 88.2812 21.5341C87.7093 21.5341 87.2585 21.661 86.929 21.9148C86.6032 22.1648 86.3778 22.4432 86.2528 22.75L84.6562 22.3864C84.8456 21.8561 85.1222 21.428 85.4858 21.1023C85.8532 20.7727 86.2756 20.5341 86.7528 20.3864C87.2301 20.2348 87.732 20.1591 88.2585 20.1591C88.607 20.1591 88.9763 20.2008 89.3665 20.2841C89.7604 20.3636 90.1278 20.5114 90.4688 20.7273C90.8134 20.9432 91.0956 21.2519 91.3153 21.6534C91.535 22.0511 91.6449 22.5682 91.6449 23.2045V29H89.9858V27.8068H89.9176C89.8078 28.0265 89.643 28.2424 89.4233 28.4545C89.2036 28.6667 88.9214 28.8428 88.5767 28.983C88.232 29.1231 87.8191 29.1932 87.3381 29.1932ZM87.7074 27.8295C88.1771 27.8295 88.5786 27.7367 88.9119 27.5511C89.2491 27.3655 89.5047 27.1231 89.679 26.8239C89.857 26.5208 89.946 26.197 89.946 25.8523V24.7273C89.8854 24.7879 89.768 24.8447 89.5938 24.8977C89.4233 24.947 89.2282 24.9905 89.0085 25.0284C88.7888 25.0625 88.5748 25.0947 88.3665 25.125C88.1581 25.1515 87.9839 25.1742 87.8438 25.1932C87.5142 25.2348 87.2131 25.3049 86.9403 25.4034C86.6714 25.5019 86.4555 25.6439 86.2926 25.8295C86.1335 26.0114 86.054 26.2538 86.054 26.5568C86.054 26.9773 86.2093 27.2955 86.5199 27.5114C86.8305 27.7235 87.2263 27.8295 87.7074 27.8295ZM93.3906 26.6932H95.1293C95.152 27.0492 95.313 27.3239 95.6122 27.517C95.9152 27.7102 96.3073 27.8068 96.7884 27.8068C97.277 27.8068 97.6937 27.7027 98.0384 27.4943C98.383 27.2822 98.5554 26.9545 98.5554 26.5114C98.5554 26.2462 98.4891 26.0152 98.3565 25.8182C98.2277 25.6174 98.044 25.4621 97.8054 25.3523C97.5705 25.2424 97.2921 25.1875 96.9702 25.1875H95.5497V23.8523H96.9702C97.4512 23.8523 97.8111 23.7424 98.0497 23.5227C98.2884 23.303 98.4077 23.0284 98.4077 22.6989C98.4077 22.3428 98.2789 22.0568 98.0213 21.8409C97.7675 21.6212 97.4134 21.5114 96.9588 21.5114C96.4967 21.5114 96.1122 21.6155 95.8054 21.8239C95.4986 22.0284 95.3376 22.2936 95.3224 22.6193H93.6065C93.6179 22.1307 93.7656 21.7027 94.0497 21.3352C94.3376 20.964 94.724 20.6761 95.2088 20.4716C95.6974 20.2633 96.2524 20.1591 96.8736 20.1591C97.5213 20.1591 98.0819 20.2633 98.5554 20.4716C99.0289 20.6799 99.3944 20.9678 99.652 21.3352C99.9134 21.7027 100.044 22.125 100.044 22.6023C100.044 23.0833 99.9001 23.4773 99.6122 23.7841C99.3281 24.0871 98.9569 24.3049 98.4986 24.4375V24.5284C98.8357 24.5511 99.1349 24.6534 99.3963 24.8352C99.6577 25.017 99.8622 25.2576 100.01 25.5568C100.158 25.8561 100.232 26.1951 100.232 26.5739C100.232 27.108 100.084 27.5701 99.7884 27.9602C99.4967 28.3504 99.0914 28.6515 98.5724 28.8636C98.0573 29.072 97.4683 29.1761 96.8054 29.1761C96.1615 29.1761 95.5838 29.0758 95.0724 28.875C94.5649 28.6705 94.1615 28.3826 93.8622 28.0114C93.5668 27.6402 93.4096 27.2008 93.3906 26.6932ZM104.526 29.1932C103.973 29.1932 103.473 29.0909 103.026 28.8864C102.579 28.678 102.224 28.3769 101.963 27.983C101.705 27.589 101.577 27.1061 101.577 26.5341C101.577 26.0417 101.671 25.6364 101.861 25.3182C102.05 25 102.306 24.7481 102.628 24.5625C102.95 24.3769 103.31 24.2367 103.707 24.142C104.105 24.0473 104.51 23.9754 104.923 23.9261C105.446 23.8655 105.87 23.8163 106.196 23.7784C106.522 23.7367 106.759 23.6705 106.906 23.5795C107.054 23.4886 107.128 23.3409 107.128 23.1364V23.0966C107.128 22.6004 106.988 22.2159 106.707 21.9432C106.431 21.6705 106.018 21.5341 105.469 21.5341C104.897 21.5341 104.446 21.661 104.116 21.9148C103.791 22.1648 103.565 22.4432 103.44 22.75L101.844 22.3864C102.033 21.8561 102.31 21.428 102.673 21.1023C103.041 20.7727 103.463 20.5341 103.94 20.3864C104.418 20.2348 104.92 20.1591 105.446 20.1591C105.795 20.1591 106.164 20.2008 106.554 20.2841C106.948 20.3636 107.315 20.5114 107.656 20.7273C108.001 20.9432 108.283 21.2519 108.503 21.6534C108.723 22.0511 108.832 22.5682 108.832 23.2045V29H107.173V27.8068H107.105C106.995 28.0265 106.83 28.2424 106.611 28.4545C106.391 28.6667 106.109 28.8428 105.764 28.983C105.42 29.1231 105.007 29.1932 104.526 29.1932ZM104.895 27.8295C105.365 27.8295 105.766 27.7367 106.099 27.5511C106.437 27.3655 106.692 27.1231 106.866 26.8239C107.045 26.5208 107.134 26.197 107.134 25.8523V24.7273C107.073 24.7879 106.955 24.8447 106.781 24.8977C106.611 24.947 106.416 24.9905 106.196 25.0284C105.976 25.0625 105.762 25.0947 105.554 25.125C105.346 25.1515 105.171 25.1742 105.031 25.1932C104.702 25.2348 104.401 25.3049 104.128 25.4034C103.859 25.5019 103.643 25.6439 103.48 25.8295C103.321 26.0114 103.241 26.2538 103.241 26.5568C103.241 26.9773 103.397 27.2955 103.707 27.5114C104.018 27.7235 104.414 27.8295 104.895 27.8295ZM110.013 21.7386V20.2727H117.376V21.7386H114.53V29H112.871V21.7386H110.013ZM120.452 23.2727H122.986C124.054 23.2727 124.876 23.5379 125.452 24.0682C126.027 24.5985 126.315 25.2822 126.315 26.1193C126.315 26.6648 126.187 27.1553 125.929 27.5909C125.671 28.0265 125.295 28.3712 124.798 28.625C124.302 28.875 123.698 29 122.986 29H119.173V20.2727H120.838V27.5341H122.986C123.474 27.5341 123.876 27.4072 124.19 27.1534C124.505 26.8958 124.662 26.5682 124.662 26.1705C124.662 25.75 124.505 25.4072 124.19 25.142C123.876 24.8731 123.474 24.7386 122.986 24.7386H120.452V23.2727ZM131.966 21.7386V20.2727H139.33V21.7386H136.483V29H134.824V21.7386H131.966ZM144.396 29.1761C143.578 29.1761 142.864 28.9886 142.254 28.6136C141.644 28.2386 141.171 27.714 140.834 27.0398C140.497 26.3655 140.328 25.5777 140.328 24.6761C140.328 23.7708 140.497 22.9792 140.834 22.3011C141.171 21.6231 141.644 21.0966 142.254 20.7216C142.864 20.3466 143.578 20.1591 144.396 20.1591C145.214 20.1591 145.929 20.3466 146.538 20.7216C147.148 21.0966 147.622 21.6231 147.959 22.3011C148.296 22.9792 148.464 23.7708 148.464 24.6761C148.464 25.5777 148.296 26.3655 147.959 27.0398C147.622 27.714 147.148 28.2386 146.538 28.6136C145.929 28.9886 145.214 29.1761 144.396 29.1761ZM144.402 27.75C144.932 27.75 145.372 27.6098 145.72 27.3295C146.069 27.0492 146.326 26.6761 146.493 26.2102C146.663 25.7443 146.749 25.2311 146.749 24.6705C146.749 24.1136 146.663 23.6023 146.493 23.1364C146.326 22.6667 146.069 22.2898 145.72 22.0057C145.372 21.7216 144.932 21.5795 144.402 21.5795C143.868 21.5795 143.425 21.7216 143.072 22.0057C142.724 22.2898 142.464 22.6667 142.294 23.1364C142.127 23.6023 142.044 24.1136 142.044 24.6705C142.044 25.2311 142.127 25.7443 142.294 26.2102C142.464 26.6761 142.724 27.0492 143.072 27.3295C143.425 27.6098 143.868 27.75 144.402 27.75ZM150.361 29V20.2727H153.98C154.965 20.2727 155.745 20.483 156.321 20.9034C156.897 21.3201 157.185 21.8864 157.185 22.6023C157.185 23.1136 157.022 23.5189 156.696 23.8182C156.37 24.1174 155.938 24.3182 155.401 24.4205C155.791 24.4659 156.149 24.5833 156.474 24.7727C156.8 24.9583 157.062 25.2083 157.259 25.5227C157.459 25.8371 157.56 26.2121 157.56 26.6477C157.56 27.1098 157.44 27.5189 157.202 27.875C156.963 28.2273 156.616 28.5038 156.162 28.7045C155.711 28.9015 155.168 29 154.531 29H150.361ZM151.957 27.5795H154.531C154.952 27.5795 155.281 27.4792 155.52 27.2784C155.759 27.0777 155.878 26.8049 155.878 26.4602C155.878 26.0549 155.759 25.7367 155.52 25.5057C155.281 25.2708 154.952 25.1534 154.531 25.1534H151.957V27.5795ZM151.957 23.9091H153.997C154.315 23.9091 154.588 23.8636 154.815 23.7727C155.046 23.6818 155.223 23.553 155.344 23.3864C155.469 23.2159 155.531 23.0152 155.531 22.7841C155.531 22.447 155.393 22.1837 155.116 21.9943C154.84 21.8049 154.461 21.7102 153.98 21.7102H151.957V23.9091ZM161.963 29.1932C161.41 29.1932 160.91 29.0909 160.463 28.8864C160.016 28.678 159.662 28.3769 159.401 27.983C159.143 27.589 159.014 27.1061 159.014 26.5341C159.014 26.0417 159.109 25.6364 159.298 25.3182C159.488 25 159.743 24.7481 160.065 24.5625C160.387 24.3769 160.747 24.2367 161.145 24.142C161.543 24.0473 161.948 23.9754 162.361 23.9261C162.884 23.8655 163.308 23.8163 163.634 23.7784C163.959 23.7367 164.196 23.6705 164.344 23.5795C164.491 23.4886 164.565 23.3409 164.565 23.1364V23.0966C164.565 22.6004 164.425 22.2159 164.145 21.9432C163.868 21.6705 163.455 21.5341 162.906 21.5341C162.334 21.5341 161.884 21.661 161.554 21.9148C161.228 22.1648 161.003 22.4432 160.878 22.75L159.281 22.3864C159.471 21.8561 159.747 21.428 160.111 21.1023C160.478 20.7727 160.901 20.5341 161.378 20.3864C161.855 20.2348 162.357 20.1591 162.884 20.1591C163.232 20.1591 163.601 20.2008 163.991 20.2841C164.385 20.3636 164.753 20.5114 165.094 20.7273C165.438 20.9432 165.721 21.2519 165.94 21.6534C166.16 22.0511 166.27 22.5682 166.27 23.2045V29H164.611V27.8068H164.543C164.433 28.0265 164.268 28.2424 164.048 28.4545C163.829 28.6667 163.546 28.8428 163.202 28.983C162.857 29.1231 162.444 29.1932 161.963 29.1932ZM162.332 27.8295C162.802 27.8295 163.204 27.7367 163.537 27.5511C163.874 27.3655 164.13 27.1231 164.304 26.8239C164.482 26.5208 164.571 26.197 164.571 25.8523V24.7273C164.51 24.7879 164.393 24.8447 164.219 24.8977C164.048 24.947 163.853 24.9905 163.634 25.0284C163.414 25.0625 163.2 25.0947 162.991 25.125C162.783 25.1515 162.609 25.1742 162.469 25.1932C162.139 25.2348 161.838 25.3049 161.565 25.4034C161.296 25.5019 161.08 25.6439 160.918 25.8295C160.759 26.0114 160.679 26.2538 160.679 26.5568C160.679 26.9773 160.834 27.2955 161.145 27.5114C161.455 27.7235 161.851 27.8295 162.332 27.8295ZM168.533 32.2727V20.2727H170.192V21.6875H170.334C170.432 21.5057 170.574 21.2955 170.76 21.0568C170.946 20.8182 171.203 20.6098 171.533 20.4318C171.862 20.25 172.298 20.1591 172.839 20.1591C173.544 20.1591 174.173 20.3371 174.726 20.6932C175.279 21.0492 175.713 21.5625 176.027 22.233C176.345 22.9034 176.504 23.7102 176.504 24.6534C176.504 25.5966 176.347 26.4053 176.033 27.0795C175.718 27.75 175.286 28.267 174.737 28.6307C174.188 28.9905 173.561 29.1705 172.857 29.1705C172.326 29.1705 171.893 29.0814 171.555 28.9034C171.222 28.7254 170.961 28.517 170.771 28.2784C170.582 28.0398 170.436 27.8277 170.334 27.642H170.232V32.2727H168.533ZM170.197 24.6364C170.197 25.25 170.286 25.7879 170.464 26.25C170.643 26.7121 170.9 27.0739 171.237 27.3352C171.574 27.5928 171.987 27.7216 172.476 27.7216C172.983 27.7216 173.408 27.5871 173.749 27.3182C174.089 27.0455 174.347 26.6761 174.521 26.2102C174.699 25.7443 174.788 25.2197 174.788 24.6364C174.788 24.0606 174.701 23.5436 174.527 23.0852C174.357 22.6269 174.099 22.2652 173.754 22C173.413 21.7348 172.987 21.6023 172.476 21.6023C171.983 21.6023 171.567 21.7292 171.226 21.983C170.889 22.2367 170.633 22.5909 170.459 23.0455C170.285 23.5 170.197 24.0303 170.197 24.6364ZM179.686 23.2727H182.22C183.288 23.2727 184.11 23.5379 184.686 24.0682C185.262 24.5985 185.55 25.2822 185.55 26.1193C185.55 26.6648 185.421 27.1553 185.163 27.5909C184.906 28.0265 184.529 28.3712 184.033 28.625C183.536 28.875 182.932 29 182.22 29H178.408V20.2727H180.072V27.5341H182.22C182.709 27.5341 183.11 27.4072 183.425 27.1534C183.739 26.8958 183.896 26.5682 183.896 26.1705C183.896 25.75 183.739 25.4072 183.425 25.142C183.11 24.8731 182.709 24.7386 182.22 24.7386H179.686V23.2727ZM186.788 29V20.2727H188.487V29H186.788Z" fill="white"/>
</svg>
