<svg width="202" height="47" viewBox="0 0 202 47" fill="none" xmlns="http://www.w3.org/2000/svg">
<circle cx="4" cy="24" r="4" fill="#2D431D"/>
<circle cx="198" cy="24" r="4" fill="#2D431D"/>
<path d="M132 23.5L143 0H8L19 23.5L8 47H143L132 23.5Z" fill="#2D431D"/>
<path d="M183 23.5L194 0H59L70 23.5L59 47H194L183 23.5Z" fill="#2D431D"/>
<path d="M39.717 30V17.4H41.337V22.98H45.117V17.4H46.737V30H45.117V24.24H41.337V30H39.717ZM48.362 30L51.422 17.4H53.762L56.822 30H55.202L54.392 26.76H50.792L49.982 30H48.362ZM51.062 25.5H54.122L52.628 19.2H52.556L51.062 25.5ZM58.4377 30V17.4H60.0577V26.76H60.1477L63.7477 17.4H65.6377V30H64.0177V20.64H63.9277L60.2377 30H58.4377ZM62.0377 16.32C61.4497 16.32 60.9397 16.2 60.5077 15.96C60.0757 15.708 59.7457 15.378 59.5177 14.97L60.2377 14.25C60.4177 14.43 60.6577 14.61 60.9577 14.79C61.2697 14.97 61.6297 15.06 62.0377 15.06C62.4457 15.06 62.7997 14.97 63.0997 14.79C63.4117 14.61 63.6577 14.43 63.8377 14.25L64.5577 14.97C64.3297 15.378 63.9997 15.708 63.5677 15.96C63.1357 16.2 62.6257 16.32 62.0377 16.32ZM69.9584 30V18.66H67.0784V17.4H74.4584V18.66H71.5784V30H69.9584ZM75.8928 30V17.4H77.5128V26.76H77.6028L81.2028 17.4H83.0928V30H81.4728V20.64H81.3828L77.6928 30H75.8928ZM93.7135 30.18C92.8735 30.18 92.1595 29.994 91.5715 29.622C90.9835 29.238 90.5335 28.578 90.2215 27.642C89.9095 26.694 89.7535 25.38 89.7535 23.7C89.7535 22.02 89.9035 20.712 90.2035 19.776C90.5155 18.828 90.9535 18.168 91.5175 17.796C92.0815 17.412 92.7535 17.22 93.5335 17.22C94.0735 17.22 94.5895 17.256 95.0815 17.328C95.5855 17.4 95.9695 17.484 96.2335 17.58V18.39H93.8935C93.4135 18.39 92.9815 18.54 92.5975 18.84C92.2255 19.14 91.9255 19.674 91.6975 20.442C91.4815 21.198 91.3735 22.284 91.3735 23.7C91.3735 25.104 91.4875 26.19 91.7155 26.958C91.9435 27.726 92.2555 28.26 92.6515 28.56C93.0595 28.86 93.5335 29.01 94.0735 29.01H96.4135V29.82C96.1495 29.904 95.7655 29.982 95.2615 30.054C94.7695 30.138 94.2535 30.18 93.7135 30.18ZM100.816 30.18C100.276 30.18 99.7718 30.15 99.3038 30.09C98.8478 30.042 98.3918 29.952 97.9358 29.82V17.58C98.3918 17.448 98.8478 17.358 99.3038 17.31C99.7718 17.25 100.276 17.22 100.816 17.22C102.076 17.22 102.988 17.496 103.552 18.048C104.128 18.588 104.416 19.422 104.416 20.55C104.416 21.09 104.308 21.594 104.092 22.062C103.888 22.53 103.516 22.914 102.976 23.214V23.286C103.696 23.49 104.206 23.886 104.506 24.474C104.806 25.062 104.956 25.764 104.956 26.58C104.956 27.84 104.65 28.758 104.038 29.334C103.426 29.898 102.352 30.18 100.816 30.18ZM99.5558 29.01H100.816C101.716 29.01 102.358 28.824 102.742 28.452C103.138 28.068 103.336 27.444 103.336 26.58C103.336 25.632 103.138 24.96 102.742 24.564C102.358 24.168 101.716 23.97 100.816 23.97H99.5558V29.01ZM99.5558 22.8H100.636C101.356 22.8 101.896 22.62 102.256 22.26C102.616 21.888 102.796 21.318 102.796 20.55C102.796 19.83 102.616 19.29 102.256 18.93C101.896 18.57 101.356 18.39 100.636 18.39H99.5558V22.8ZM110.446 30.18C109.642 30.18 108.946 29.994 108.358 29.622C107.782 29.238 107.338 28.578 107.026 27.642C106.726 26.694 106.576 25.38 106.576 23.7C106.576 22.02 106.726 20.712 107.026 19.776C107.338 18.828 107.782 18.168 108.358 17.796C108.946 17.412 109.642 17.22 110.446 17.22C111.262 17.22 111.958 17.412 112.534 17.796C113.11 18.168 113.548 18.828 113.848 19.776C114.16 20.712 114.316 22.02 114.316 23.7C114.316 25.38 114.16 26.694 113.848 27.642C113.548 28.578 113.11 29.238 112.534 29.622C111.958 29.994 111.262 30.18 110.446 30.18ZM110.446 29.1C110.734 29.1 111.01 29.022 111.274 28.866C111.55 28.698 111.796 28.416 112.012 28.02C112.228 27.624 112.396 27.078 112.516 26.382C112.636 25.674 112.696 24.78 112.696 23.7C112.696 22.62 112.636 21.732 112.516 21.036C112.396 20.328 112.228 19.776 112.012 19.38C111.796 18.984 111.55 18.708 111.274 18.552C111.01 18.384 110.734 18.3 110.446 18.3C110.158 18.3 109.876 18.384 109.6 18.552C109.336 18.708 109.096 18.984 108.88 19.38C108.664 19.776 108.496 20.328 108.376 21.036C108.256 21.732 108.196 22.62 108.196 23.7C108.196 24.78 108.256 25.674 108.376 26.382C108.496 27.078 108.664 27.624 108.88 28.02C109.096 28.416 109.336 28.698 109.6 28.866C109.876 29.022 110.158 29.1 110.446 29.1ZM116.481 30V17.4H118.101V26.76H118.191L121.791 17.4H123.681V30H122.061V20.64H121.971L118.281 30H116.481ZM120.081 16.32C119.493 16.32 118.983 16.2 118.551 15.96C118.119 15.708 117.789 15.378 117.561 14.97L118.281 14.25C118.461 14.43 118.701 14.61 119.001 14.79C119.313 14.97 119.673 15.06 120.081 15.06C120.489 15.06 120.843 14.97 121.143 14.79C121.455 14.61 121.701 14.43 121.881 14.25L122.601 14.97C122.373 15.378 122.043 15.708 121.611 15.96C121.179 16.2 120.669 16.32 120.081 16.32ZM133.581 30.18C133.041 30.18 132.537 30.15 132.069 30.09C131.613 30.042 131.157 29.952 130.701 29.82V17.58C131.157 17.448 131.613 17.358 132.069 17.31C132.537 17.25 133.041 17.22 133.581 17.22C134.841 17.22 135.753 17.496 136.317 18.048C136.893 18.588 137.181 19.422 137.181 20.55C137.181 21.09 137.073 21.594 136.857 22.062C136.653 22.53 136.281 22.914 135.741 23.214V23.286C136.461 23.49 136.971 23.886 137.271 24.474C137.571 25.062 137.721 25.764 137.721 26.58C137.721 27.84 137.415 28.758 136.803 29.334C136.191 29.898 135.117 30.18 133.581 30.18ZM132.321 29.01H133.581C134.481 29.01 135.123 28.824 135.507 28.452C135.903 28.068 136.101 27.444 136.101 26.58C136.101 25.632 135.903 24.96 135.507 24.564C135.123 24.168 134.481 23.97 133.581 23.97H132.321V29.01ZM132.321 22.8H133.401C134.121 22.8 134.661 22.62 135.021 22.26C135.381 21.888 135.561 21.318 135.561 20.55C135.561 19.83 135.381 19.29 135.021 18.93C134.661 18.57 134.121 18.39 133.401 18.39H132.321V22.8ZM146.181 30.18C145.641 30.18 145.191 30 144.831 29.64C144.483 29.28 144.243 28.74 144.111 28.02L143.661 25.68C143.541 25.044 143.325 24.618 143.013 24.402C142.713 24.174 142.359 24.06 141.951 24.06H141.321V30H139.701V17.4H141.321V22.8H141.951C142.263 22.8 142.557 22.686 142.833 22.458C143.109 22.23 143.325 21.804 143.481 21.18L143.931 19.38C144.111 18.66 144.375 18.12 144.723 17.76C145.083 17.4 145.509 17.22 146.001 17.22C146.313 17.22 146.571 17.25 146.775 17.31C146.979 17.37 147.081 17.4 147.081 17.4V18.21C146.637 18.21 146.307 18.318 146.091 18.534C145.887 18.738 145.737 19.02 145.641 19.38L145.191 21.18C144.999 21.924 144.783 22.452 144.543 22.764C144.303 23.064 143.979 23.274 143.571 23.394V23.466C144.027 23.586 144.405 23.796 144.705 24.096C145.005 24.396 145.227 24.924 145.371 25.68L145.821 28.02C145.881 28.332 146.025 28.608 146.253 28.848C146.481 29.076 146.817 29.19 147.261 29.19V30C147.261 30 147.159 30.03 146.955 30.09C146.751 30.15 146.493 30.18 146.181 30.18ZM150.522 30.18C150.258 30.18 149.958 30.138 149.622 30.054C149.298 29.982 148.998 29.904 148.722 29.82V29.01H149.982C150.306 29.01 150.588 28.938 150.828 28.794C151.068 28.638 151.278 28.374 151.458 28.002C151.638 27.618 151.794 27.084 151.926 26.4C151.17 26.4 150.576 26.208 150.144 25.824C149.724 25.428 149.424 24.9 149.244 24.24L147.354 17.4H148.974L150.864 24.24C150.96 24.552 151.116 24.798 151.332 24.978C151.548 25.146 151.824 25.23 152.16 25.23L153.744 17.4H155.364L153.402 27.12C153.186 28.2 152.85 28.98 152.394 29.46C151.95 29.94 151.326 30.18 150.522 30.18ZM160.581 30.18C159.741 30.18 159.027 29.994 158.439 29.622C157.851 29.238 157.401 28.578 157.089 27.642C156.777 26.694 156.621 25.38 156.621 23.7C156.621 22.02 156.771 20.712 157.071 19.776C157.383 18.828 157.821 18.168 158.385 17.796C158.949 17.412 159.621 17.22 160.401 17.22C160.941 17.22 161.457 17.256 161.949 17.328C162.453 17.4 162.837 17.484 163.101 17.58V18.39H160.761C160.281 18.39 159.849 18.54 159.465 18.84C159.093 19.14 158.793 19.674 158.565 20.442C158.349 21.198 158.241 22.284 158.241 23.7C158.241 25.104 158.355 26.19 158.583 26.958C158.811 27.726 159.123 28.26 159.519 28.56C159.927 28.86 160.401 29.01 160.941 29.01H163.281V29.82C163.017 29.904 162.633 29.982 162.129 30.054C161.637 30.138 161.121 30.18 160.581 30.18Z" fill="white"/>
</svg>
